<?xml version="1.0" encoding="iso-8859-1"?>
<!-- Generator: Adobe Illustrator 19.0.0, SVG Export Plug-In . SVG Version: 6.00 Build 0)  -->
<svg version="1.1" id="Capa_1" xmlns="http://www.w3.org/2000/svg" xmlns:xlink="http://www.w3.org/1999/xlink" x="0px" y="0px"
	 viewBox="0 0 511.999 511.999" style="enable-background:new 0 0 511.999 511.999;" xml:space="preserve">
<path style="fill:#007A6E;" d="M394.301,341.766l-30.274-17.449l0,0l0,0l-77.259,0.028l-14.003,51.231l14.638,8.436
	c-30.143,33.326-78.178,69.673-126.134,56.474c-2.087-2.015-4.099-4.176-6.029-6.488l0,0l-30.274-17.449l0,0l-28.193,44.509l0,0l0,0
	c8.843,10.594,19.034,18.689,30.296,24.249l-0.022,0.002l23.479,13.703l-0.006-0.022c55.871,34.161,123.071-5.361,164.139-44.788
	l14.3,8.242l0,0l32.359-0.013L394.301,341.766z M307.668,411.941c0.025-0.03,0.051-0.059,0.076-0.088l-0.005,0.017
	C307.716,411.894,307.692,411.918,307.668,411.941C307.694,411.912,307.692,411.918,307.668,411.941z"/>
<polygon style="fill:#00D16D;" points="394.301,341.766 364.027,324.318 286.768,324.345 317.042,341.794 "/>
<path style="fill:#00AC65;" d="M235.09,505.214c35.438-11.799,71.098-38.4,102.928-75.911l-9.059,33.143l32.359-0.012L394.3,341.768
	l-77.259,0.028l-14.003,51.231l21.977-0.008c-25.763,30.836-54.759,52.693-83.569,62.285c-34.527,11.496-65.143,3.93-86.207-21.304
	l-28.193,44.509C153.449,510.137,191.82,519.621,235.09,505.214z"/>
<path style="fill:#00D16D;" d="M241.447,455.302c22.502-7.492,45.117-22.466,66.217-43.356c0.027-0.031,0.054-0.061,0.08-0.093
	l-0.005,0.017c5.889-5.835,11.66-12.131,17.276-18.853l0,0l-21.976,0.008l0,0l-15.636-9.012
	c-23.867,26.387-50.125,45.148-76.23,53.84c-17.961,5.98-34.854,6.776-49.903,2.633
	C181.951,460.455,210.084,465.744,241.447,455.302z"/>
<path style="fill:#E9662C;" d="M407.998,88.832l-6.033-3.564c-5.288-3.123-11.847-3.157-17.166-0.087L135.649,228.97
	c-10.999,6.351-17.775,18.087-17.775,30.787v155.439c0,5.097,2.724,9.805,7.143,12.345l7.598,4.367
	c0.129,0.077,0.259,0.152,0.391,0.225l0.206,0.118l0.004-0.005c4.087,2.183,9.223,2.421,13.809-0.227l250.427-144.584
	c10.999-6.35,17.775-18.087,17.775-30.788v-155.43C415.227,95.69,412.207,91.213,407.998,88.832z"/>
<path style="fill:#C40041;" d="M217.355,264.962c0,28.199-17.145,60.957-38.294,73.168c-21.149,12.21-38.294-0.751-38.294-28.95
	s17.145-60.958,38.294-73.168C200.21,223.801,217.355,236.762,217.355,264.962z"/>
<path style="fill:#FFD800;" d="M261.134,239.41c0,28.199-17.145,60.957-38.294,73.168s-38.294-0.751-38.294-28.95
	s17.145-60.958,38.294-73.168S261.134,211.211,261.134,239.41z"/>
<path style="fill:#AF4D21;" d="M125.679,419.697V264.265c0-12.701,6.776-24.437,17.775-30.788L393.882,88.893
	c4.701-2.714,9.982-2.399,14.117-0.061l-6.033-3.564c-5.288-3.123-11.847-3.157-17.166-0.087L135.65,228.97
	c-10.999,6.351-17.775,18.087-17.775,30.787v155.439c0,5.097,2.724,9.805,7.143,12.345l7.598,4.367
	C128.56,429.489,125.679,425.094,125.679,419.697z"/>
<path style="fill:#2683BF;" d="M133.005,432.134l0.206,0.118l0.004-0.005C133.146,432.209,133.075,432.173,133.005,432.134z"/>
<g>
	<polygon style="fill:#F2A380;" points="160.731,365.755 220.011,331.298 220.011,365.844 160.731,400.447 	"/>
	<polygon style="fill:#F2A380;" points="236.91,322.274 296.19,287.816 296.19,322.362 236.91,356.965 	"/>
</g>
<polygon style="fill:#FFFFFF;" points="340.01,155.548 396.188,123.113 396.188,158.993 340.01,191.428 "/>
<g>
	<path style="fill:#C8CED6;" d="M348.182,157.237l9.089-5.247c1.796-1.037,4.042,0.259,4.042,2.333v12.307l-3.909,2.345v1.933
		l35.176-20.1v3.668c0,1.195-0.638,2.3-1.673,2.897l-46.431,26.807v-3.626c0-1.173,0.615-2.26,1.619-2.866l8.474-5.104v-1.933
		l-6.074,3.43c-1.796,1.014-4.02-0.283-4.02-2.346v-8.079C344.477,161.007,345.889,158.56,348.182,157.237z"/>
	<path style="fill:#C8CED6;" d="M390.908,149.544c1.035-0.598,1.673-1.702,1.673-2.897v-5.455l-25.987,15.004
		c-1.035,0.597-1.673,1.702-1.673,2.897v5.455L390.908,149.544z"/>
	<path style="fill:#C8CED6;" d="M366.594,146.616c-1.035,0.598-1.673,1.702-1.673,2.897v5.455l14.305-8.264
		c1.035-0.598,1.672-1.702,1.672-2.897v-5.451L366.594,146.616z"/>
	<path style="fill:#C8CED6;" d="M384.054,136.446c-1.048,0.594-1.696,1.706-1.696,2.91v5.545l8.549-4.936
		c1.035-0.598,1.673-1.702,1.673-2.897v-5.455L384.054,136.446z"/>
</g>
<g style="opacity:0.2;">
	<path style="fill:#FFFFFF;" d="M172.909,216.472l-47.23,131.501v71.724c0,10.954,11.858,17.801,21.345,12.324l41.815-24.142
		l90.897-253.084L172.909,216.472z"/>
</g>
<g style="opacity:0.2;">
	<path style="fill:#FFFFFF;" d="M415.227,160.742v-59.526c0-10.954-11.859-17.801-21.346-12.324l-62.596,36.14l-90.898,253.084
		l122.082-70.484L415.227,160.742z"/>
</g>
<g>
	<path style="fill:#007A6E;" d="M374.872,79.021L374.872,79.021L374.872,79.021z"/>
	<path style="fill:#007A6E;" d="M402.31,46.837c-6.327-6.8-13.614-12.738-21.666-17.381c-0.005-0.003-0.01-0.007-0.016-0.01
		c0.003,0.002,0.005,0.003,0.008,0.005c0.001,0.001,0.003,0.002,0.004,0.002l0.023-0.003L350.06,11.803l-0.003,0.011
		c-58.708-33.578-127.535,10.894-168.496,52.575l-13.99-8.068l-32.829,1.801L104.44,178.714l30.317,17.485l78.379-4.297
		l12.865-51.199l0,0l0,0l0,0l-14.366-8.285c30.198-34.773,80.047-74.46,129.847-60.806h-0.001c1.041,1.003,2.069,2.031,3.072,3.109
		l30.317,17.485c-0.013-0.013-0.013-0.013,0,0l0,0l0,0L402.31,46.837z"/>
</g>
<path style="fill:#00AC65;" d="M292,26.522c-35.644,13.573-71.124,41.726-102.434,80.406l8.323-33.123l-32.829,1.801
	l-30.302,120.592l78.379-4.297l12.865-51.199l-22.295,1.223c25.329-31.775,54.174-54.89,83.151-65.924
	c34.727-13.224,65.985-7.468,88.015,16.205l27.437-45.368C374.696,17.164,335.521,9.95,292,26.522z"/>
<polygon style="fill:#00D16D;" points="197.889,73.806 167.572,56.321 134.743,58.121 165.06,75.606 "/>
<g>
</g>
<g>
</g>
<g>
</g>
<g>
</g>
<g>
</g>
<g>
</g>
<g>
</g>
<g>
</g>
<g>
</g>
<g>
</g>
<g>
</g>
<g>
</g>
<g>
</g>
<g>
</g>
<g>
</g>
</svg>
