<?xml version="1.0" encoding="iso-8859-1"?>
<!-- Generator: Adobe Illustrator 19.0.0, SVG Export Plug-In . SVG Version: 6.00 Build 0)  -->
<svg version="1.1" id="Capa_1" xmlns="http://www.w3.org/2000/svg" xmlns:xlink="http://www.w3.org/1999/xlink" x="0px" y="0px"
	 viewBox="0 0 512.001 512.001" style="enable-background:new 0 0 512.001 512.001;" xml:space="preserve">
<path style="fill:#E9662C;" d="M446.992,8.649l-8.8-5.198c-7.712-4.555-17.279-4.604-25.036-0.127L49.77,213.04
	c-16.042,9.262-25.925,26.379-25.925,44.904v226.707c0,7.434,3.973,14.301,10.419,18.006l11.082,6.37
	c0.188,0.112,0.378,0.221,0.57,0.328l0.301,0.173l0.006-0.008c5.96,3.184,13.452,3.531,20.14-0.33L431.61,298.313
	c16.042-9.262,25.925-26.379,25.925-44.904V26.712C457.535,18.652,453.131,12.121,446.992,8.649z"/>
<path style="fill:#C40041;" d="M168.939,265.533c0,41.128-25.006,88.906-55.852,106.715s-55.852-1.095-55.852-42.223
	s25.006-88.906,55.852-106.715S168.939,224.405,168.939,265.533z"/>
<path style="fill:#FFD800;" d="M232.791,228.267c0,41.128-25.006,88.906-55.852,106.715s-55.852-1.095-55.852-42.223
	s25.006-88.906,55.852-106.715S232.791,187.139,232.791,228.267z"/>
<path style="fill:#AF4D21;" d="M35.23,491.214V264.517c0-18.524,9.883-35.641,25.925-44.904L426.403,8.738
	c6.856-3.959,14.559-3.499,20.589-0.089l-8.8-5.198c-7.712-4.555-17.279-4.604-25.036-0.127L49.77,213.04
	c-16.042,9.262-25.925,26.379-25.925,44.904v226.707c0,7.434,3.973,14.301,10.419,18.006l11.082,6.37
	C39.432,505.496,35.23,499.085,35.23,491.214z"/>
<path style="fill:#2683BF;" d="M45.915,509.354l0.301,0.173l0.006-0.008C46.12,509.464,46.017,509.41,45.915,509.354z"/>
<g>
	<polygon style="fill:#F2A380;" points="86.354,412.541 172.814,362.284 172.814,412.67 86.354,463.138 	"/>
	<polygon style="fill:#F2A380;" points="197.46,349.123 283.92,298.867 283.92,349.252 197.46,399.721 	"/>
</g>
<polygon style="fill:#FFFFFF;" points="347.831,105.953 429.767,58.648 429.767,110.979 347.831,158.284 "/>
<g>
	<path style="fill:#C8CED6;" d="M359.751,108.416l13.256-7.653c2.62-1.513,5.895,0.378,5.895,3.403v17.95l-5.701,3.421v2.819
		l51.304-29.317v5.349c0,1.743-0.93,3.354-2.44,4.226l-67.72,39.098v-5.289c0-1.711,0.896-3.297,2.362-4.18l12.359-7.445v-2.819
		l-8.858,5.003c-2.62,1.48-5.863-0.413-5.863-3.422v-11.784C354.346,113.916,356.406,110.347,359.751,108.416z"/>
	<path style="fill:#C8CED6;" d="M422.066,97.196c1.51-0.871,2.44-2.482,2.44-4.226v-7.956l-37.902,21.883
		c-1.51,0.871-2.44,2.482-2.44,4.226v7.956L422.066,97.196z"/>
	<path style="fill:#C8CED6;" d="M386.604,92.927c-1.51,0.872-2.44,2.482-2.44,4.226v7.956l20.864-12.052
		c1.509-0.872,2.439-2.482,2.439-4.225v-7.95L386.604,92.927z"/>
	<path style="fill:#C8CED6;" d="M412.07,78.093c-1.528,0.866-2.473,2.488-2.473,4.245v8.087l12.469-7.199
		c1.51-0.871,2.44-2.482,2.44-4.226v-7.956L412.07,78.093z"/>
</g>
<g style="opacity:0.2;">
	<path style="fill:#FFFF00;" d="M104.115,194.811L35.23,386.605v104.61c0,15.977,17.296,25.963,31.132,17.974l60.986-35.211
		l132.574-369.123L104.115,194.811z"/>
</g>
<g style="opacity:0.2;">
	<path style="fill:#FFFF00;" d="M457.535,113.53V26.712c0-15.977-17.296-25.963-31.133-17.974l-91.296,52.71L202.533,430.57
		l178.056-102.8L457.535,113.53z"/>
</g>
<polygon style="fill:#009F5E;" points="461.217,202.565 436.386,188.87 368.093,314.295 355.238,304.576 330.408,290.233 
	303.476,341.702 368.093,390.561 392.918,404.896 488.155,222.93 "/>
<polygon style="fill:#00D16D;" points="392.918,404.896 488.155,222.93 461.217,202.565 392.918,333.062 355.238,304.576 
	328.3,356.046 "/>
<polygon style="fill:#007A6E;" points="328.3,356.046 303.476,341.702 368.093,390.561 392.918,404.896 "/>
<g>
</g>
<g>
</g>
<g>
</g>
<g>
</g>
<g>
</g>
<g>
</g>
<g>
</g>
<g>
</g>
<g>
</g>
<g>
</g>
<g>
</g>
<g>
</g>
<g>
</g>
<g>
</g>
<g>
</g>
</svg>
